<svg width="16" height="16" viewBox="0 0 16 16" fill="none" xmlns="http://www.w3.org/2000/svg">
<path fill-rule="evenodd" clip-rule="evenodd" d="M8.28445 2.53111C8.2824 2.1551 8.16564 0.281118 8.16564 0.281118C8.16564 0.281118 8.17418 0 7.9989 0C7.82363 0 7.83218 0.281118 7.83218 0.281118L7.69757 2.52981C5.43216 2.65008 3.41829 4.21331 2.69778 6.37489L2.67759 6.36123C1.98778 6.29835 1.27341 6.85204 1.04304 7.51411C0.817467 8.16235 0.873646 9.0545 1.57427 9.69414C2.05496 10.133 2.41679 10.1305 2.80169 10.1146L2.80883 10.1093C3.4444 11.6543 4.79517 12.8334 6.4438 13.2969V13.5104C6.17239 13.5351 4.75987 13.6914 4.03477 14.3234C4.03477 14.3234 5.21599 16.0018 7.97793 16.0018C8.38527 16.0018 8.75857 15.9651 9.09899 15.9025C8.90536 15.6251 8.75489 15.3154 8.65733 14.983C8.4466 14.9995 8.22403 15.0083 7.99392 15.0083C6.66515 15.0083 5.58796 14.7148 5.58796 14.3528C5.58796 14.1517 5.92043 13.9717 6.4438 13.8515V13.9237C6.4438 14.4516 7.64719 14.6392 8.55665 14.5066C8.53853 14.3694 8.52919 14.2294 8.52919 14.0872C8.52919 13.7071 8.59599 13.3426 8.7185 13.0047C8.48546 13.036 8.2475 13.0521 8.00573 13.0521C5.8124 13.0521 3.91725 11.7202 3.19126 9.8255C3.62248 9.46081 3.83923 8.95688 3.83923 8.25428C3.83923 7.52917 3.52934 6.93934 3.0945 6.64328C3.57924 5.05502 4.82133 3.79946 6.34302 3.26356C6.32367 3.29633 6.29218 3.37147 6.29218 3.51352C6.29218 3.71859 6.60389 4.5881 7.99838 4.5881C9.39288 4.5881 9.7374 3.7514 9.7374 3.50532C9.7374 3.38573 9.7161 3.32038 9.69419 3.2848C11.2087 3.82976 12.4597 5.06467 12.9394 6.6205L12.923 6.63161C12.479 6.92365 12.1608 7.51951 12.1608 8.25428C12.1608 8.95877 12.3787 9.4635 12.8123 9.82842C12.6556 10.2307 12.4481 10.607 12.1976 10.9504C12.3627 10.9761 12.5235 11.0146 12.6791 11.0648C12.8809 10.7669 13.0539 10.4479 13.194 10.1114L13.1984 10.1146C13.5833 10.1305 13.9451 10.133 14.4258 9.69414C15.1264 9.0545 15.1826 8.16235 14.957 7.51411C14.7285 6.85729 14.0236 6.30713 13.3389 6.35986C12.6167 4.20723 10.543 2.66031 8.28445 2.53111ZM2.1233 7.0708C2.01801 7.09234 1.50374 7.51546 1.50374 8.22096C1.50374 8.92647 2.01832 9.36198 2.14072 9.38039C1.81521 8.68148 1.81548 7.6903 2.1233 7.0708ZM13.8767 7.0708C13.982 7.09234 14.4963 7.51546 14.4963 8.22096C14.4963 8.92647 13.9817 9.36198 13.8593 9.38039C14.1848 8.68148 14.1846 7.6903 13.8767 7.0708ZM6.88513 3.45548L6.9494 3.40146C6.95656 3.39543 6.96014 3.39243 6.96377 3.39295C6.9674 3.39347 6.97006 3.39748 6.97539 3.4055C7.02824 3.48521 7.29056 3.81727 7.99255 3.81727C8.70395 3.81727 9.00913 3.47751 9.06685 3.40397L9.06889 3.40138C9.07079 3.39899 9.07232 3.39717 9.07373 3.39591L9.0748 3.39504C9.07585 3.39427 9.07687 3.39383 9.07798 3.3937C9.08009 3.39345 9.08216 3.39435 9.08501 3.39633L9.08871 3.39909L9.15201 3.44895C9.15323 3.44991 9.15441 3.45084 9.15555 3.45174C9.1635 3.45803 9.16941 3.46287 9.17358 3.46761C9.17522 3.46948 9.17658 3.47133 9.17769 3.47324C9.17915 3.47575 9.18017 3.47837 9.18079 3.48129C9.18326 3.4929 9.17862 3.50172 9.16934 3.51934C9.10303 3.64527 8.83955 4.01261 8.02254 4.01261C7.20451 4.01261 6.93701 3.64926 6.86961 3.52546C6.86025 3.50827 6.85557 3.49968 6.85775 3.48818C6.85992 3.47668 6.86832 3.46961 6.88513 3.45548Z" fill="black"/>
<path d="M10.0568 11.3725C10.1215 11.3332 10.1877 11.2961 10.2553 11.2614C9.40103 9.69236 7.17538 8.98892 5.52179 10.4741L5.63733 10.64C6.77967 9.94641 8.77058 10.0243 10.0568 11.3725Z" fill="black"/>
<path d="M6.79635 8.36645C7.14584 8.1468 7.37813 7.75779 7.37813 7.31455C7.37813 6.62889 6.82229 6.07304 6.13663 6.07304C5.45096 6.07304 4.87823 6.64373 4.87823 7.2938C4.87823 7.30997 4.87854 7.32609 4.87917 7.34214C4.91187 6.87958 5.37113 6.29739 6.01277 6.29739C6.31233 6.29737 6.42881 6.53513 6.42881 6.65043C6.42881 6.76572 6.38335 6.94489 6.13643 6.94489C5.98257 6.94489 5.52155 7.07855 5.52155 7.72799C5.51309 8.1718 6.03154 8.72546 6.79635 8.36645Z" fill="black"/>
<path d="M11.1075 7.31455C11.1075 7.75779 10.8752 8.1468 10.5258 8.36645C9.76094 8.72546 9.2425 8.1718 9.25096 7.72799C9.25096 7.07855 9.71198 6.94489 9.86583 6.94489C10.1128 6.94489 10.1582 6.76572 10.1582 6.65043C10.1582 6.53513 10.0417 6.29737 9.74218 6.29739C9.10054 6.29739 8.64128 6.87958 8.60858 7.34214L8.60802 7.32486L8.60778 7.31348L8.60767 7.30381L8.60764 7.29884L8.60763 7.2938C8.60763 6.64373 9.18037 6.07304 9.86603 6.07304C10.5517 6.07304 11.1075 6.62889 11.1075 7.31455Z" fill="black"/>
<path d="M11.5273 13.976C11.4803 13.9291 11.4539 13.8654 11.4539 13.799V13.1315C11.4539 13.0651 11.4803 13.0014 11.5273 12.9544C11.5742 12.9075 11.6379 12.8811 11.7043 12.8811C11.7707 12.8811 11.8343 12.9075 11.8813 12.9544C11.9282 13.0014 11.9546 13.0651 11.9546 13.1315V13.799C11.9546 13.8654 11.9282 13.9291 11.8813 13.976C11.8343 14.023 11.7707 14.0494 11.7043 14.0494C11.6379 14.0494 11.5742 14.023 11.5273 13.976Z" fill="black"/>
<path d="M11.9818 14.8189C12.0185 14.764 12.0381 14.6995 12.0381 14.6335C12.0381 14.545 12.0029 14.4601 11.9403 14.3975C11.8777 14.3349 11.7928 14.2997 11.7043 14.2997C11.6383 14.2997 11.5737 14.3193 11.5188 14.356C11.4639 14.3926 11.4212 14.4448 11.3959 14.5058C11.3706 14.5667 11.364 14.6339 11.3769 14.6986C11.3898 14.7634 11.4216 14.8228 11.4682 14.8695C11.5149 14.9162 11.5744 14.948 11.6391 14.9609C11.7039 14.9737 11.771 14.9671 11.832 14.9419C11.893 14.9166 11.9451 14.8738 11.9818 14.8189Z" fill="black"/>
<path fill-rule="evenodd" clip-rule="evenodd" d="M14.0462 14.8442L12.2218 11.6759C12.169 11.5856 12.0934 11.5106 12.0026 11.4585C11.9118 11.4064 11.809 11.379 11.7043 11.379C11.5996 11.379 11.4967 11.4064 11.4059 11.4585C11.3151 11.5106 11.2395 11.5856 11.1867 11.6759L9.36234 14.8442C9.31107 14.9319 9.28404 15.0316 9.28404 15.1332C9.28404 15.2348 9.31107 15.3346 9.36234 15.4223C9.4146 15.5131 9.49007 15.5884 9.58103 15.6404C9.67198 15.6924 9.77514 15.7193 9.87992 15.7183H13.5286C13.6333 15.7192 13.7364 15.6923 13.8273 15.6403C13.9181 15.5883 13.9936 15.513 14.0458 15.4223C14.0971 15.3346 14.1242 15.2349 14.1243 15.1333C14.1244 15.0317 14.0974 14.9319 14.0462 14.8442ZM13.6123 15.1717C13.6038 15.1862 13.5916 15.1981 13.5769 15.2062C13.5622 15.2142 13.5456 15.2182 13.5288 15.2176H9.87992C9.86316 15.2182 9.84657 15.2142 9.83188 15.2062C9.81719 15.1981 9.80495 15.1862 9.79647 15.1717C9.78927 15.16 9.78546 15.1466 9.78546 15.1328C9.78546 15.1191 9.78927 15.1056 9.79647 15.0939L11.6208 11.9256C11.6299 11.9117 11.6422 11.9003 11.6568 11.8924C11.6714 11.8845 11.6877 11.8804 11.7043 11.8804C11.7208 11.8804 11.7372 11.8845 11.7517 11.8924C11.7663 11.9003 11.7787 11.9117 11.7877 11.9256L13.6119 15.0939C13.6191 15.1056 13.623 15.119 13.6231 15.1328C13.6231 15.1465 13.6194 15.16 13.6123 15.1717Z" fill="black"/>
</svg>
