<svg xmlns="http://www.w3.org/2000/svg" width="80" height="80" viewBox="0 0 80 80" fill="none">
<path d="M36.9675 36.653C36.9675 38.8144 35.8347 40.7113 34.1305 41.7824C30.401 43.533 27.8729 40.8332 27.9142 38.669C27.9142 35.5021 30.1623 34.8504 30.9125 34.8504C32.1166 34.8504 32.3382 33.9767 32.3382 33.4145C32.3382 32.8522 31.7703 31.6929 30.3095 31.6929C27.1807 31.6929 24.9412 34.5319 24.7817 36.7875C24.7786 36.7092 24.7771 36.6306 24.7771 36.5518C24.7771 33.3818 27.57 30.599 30.9135 30.599C34.257 30.599 36.9675 33.3094 36.9675 36.653Z" fill="#282727"/>
<path d="M55.1532 36.653C55.1532 38.8144 54.0205 40.7113 52.3163 41.7824C48.5868 43.533 46.0587 40.8332 46.1 38.669C46.1 35.5021 48.3481 34.8504 49.0983 34.8504C50.3023 34.8504 50.524 33.9767 50.524 33.4145C50.524 32.8522 49.9561 31.6929 48.4953 31.6929C45.3665 31.6929 43.127 34.5319 42.9675 36.7875L42.9648 36.7032L42.9636 36.6478L42.9631 36.6006L42.9629 36.5764L42.9629 36.5518C42.9629 33.3818 45.7557 30.599 49.0993 30.599C52.4428 30.599 55.1532 33.3094 55.1532 36.653Z" fill="#282727"/>
<path d="M28.8943 48.2687C36.2505 53.9379 46.0924 52.6517 51.064 48.2896L51.7592 48.9882C45.0021 57.6149 33.5424 55.993 28.1836 48.9882L28.8943 48.2687Z" fill="#282727"/>
<path fill-rule="evenodd" clip-rule="evenodd" d="M41.387 13.3274C41.377 11.4938 40.8076 2.35568 40.8076 2.35568C40.8076 2.35568 40.8492 0.984863 39.9945 0.984863C39.1398 0.984863 39.1815 2.35568 39.1815 2.35568L38.5251 13.321C27.4783 13.9075 17.658 21.5303 14.1445 32.0709L14.0461 32.0043C10.6824 31.6976 7.19887 34.3976 6.07551 37.6261C4.97555 40.7871 5.2495 45.1375 8.66594 48.2566C11.01 50.3967 12.7743 50.3846 14.6513 50.307L14.6861 50.2812C17.7853 57.815 24.3721 63.5645 32.4113 65.8249V66.866C31.0879 66.9863 24.2 67.7484 20.6641 70.8303C20.6641 70.8303 26.4242 79.0148 39.8923 79.0148C53.3604 79.0148 59.1949 70.7849 59.1949 70.7849C55.6372 67.8443 49.447 67.0646 47.5728 66.8912V65.8459C55.6163 63.605 62.1765 57.8598 65.3277 50.2914L65.3488 50.307C67.2257 50.3846 68.99 50.3967 71.3341 48.2566C74.7505 45.1375 75.0245 40.7871 73.9245 37.6261C72.81 34.4232 69.3727 31.7404 66.0339 31.9976C62.5124 21.5006 52.4004 13.9574 41.387 13.3274ZM63.466 48.9114C59.8549 58.1847 50.7028 64.6311 40.0278 64.6311C29.3324 64.6311 20.0911 58.1362 16.5509 48.8971C18.6537 47.1188 19.7106 44.6615 19.7106 41.2354C19.7106 37.6995 18.1995 34.8233 16.0791 33.3796C18.4429 25.6347 24.4997 19.5122 31.9199 16.899C31.8256 17.0588 31.672 17.4252 31.672 18.1179C31.672 19.1179 33.192 23.3579 39.992 23.3579C46.792 23.3579 48.472 19.2779 48.472 18.0779C48.472 17.4948 48.3681 17.1761 48.2613 17.0026C55.6466 19.66 61.747 25.6818 64.086 33.2685L64.0059 33.3227C61.841 34.7468 60.2894 37.6524 60.2894 41.2354C60.2894 44.6707 61.352 47.1319 63.466 48.9114ZM11.3432 35.4644C10.8298 35.5694 8.32203 37.6326 8.32203 41.0729C8.32203 44.5132 10.8313 46.6369 11.4282 46.7267C9.84086 43.3185 9.84219 38.4853 11.3432 35.4644ZM68.6568 35.4644C69.1702 35.5694 71.678 37.6326 71.678 41.0729C71.678 44.5132 69.1687 46.6369 68.5718 46.7267C70.1591 43.3185 70.1578 38.4853 68.6568 35.4644ZM34.5634 17.8349L34.8768 17.5715C34.9117 17.5421 34.9292 17.5274 34.9469 17.53C34.9646 17.5325 34.9776 17.552 35.0036 17.5912C35.2613 17.9799 36.5404 19.5991 39.9636 19.5991C43.4326 19.5991 44.9207 17.9423 45.2022 17.5837C45.2057 17.5792 45.209 17.575 45.2121 17.5711C45.2214 17.5594 45.2289 17.5506 45.2357 17.5444C45.2428 17.538 45.2493 17.5345 45.2565 17.5336C45.2668 17.5324 45.2768 17.5368 45.2907 17.5465C45.299 17.5522 45.3087 17.5598 45.3206 17.5692L45.6175 17.8031C45.6651 17.8406 45.6994 17.8676 45.7226 17.894C45.7306 17.9031 45.7373 17.9122 45.7427 17.9215C45.7498 17.9337 45.7548 17.9465 45.7578 17.9608C45.7698 18.0174 45.7472 18.0604 45.702 18.1463C45.3786 18.7604 44.0938 20.5516 40.1098 20.5516C36.1208 20.5516 34.8164 18.7798 34.4877 18.1761C34.4421 18.0923 34.4193 18.0504 34.4299 17.9944C34.4405 17.9383 34.4814 17.9038 34.5634 17.8349ZM47.5728 68.8394C47.5728 72.8695 32.4113 73.0192 32.4113 68.8814V68.5292C29.8592 69.1155 28.238 69.993 28.238 70.9737C28.238 72.739 33.4907 74.1701 39.9702 74.1701C46.4498 74.1701 51.7025 72.739 51.7025 70.9737C51.7025 69.9986 50.0997 69.1255 47.5728 68.5392V68.8394Z" fill="#282727"/>
</svg>